PathFileType	4	(X/Y/Z)	C:/Users/opensim2020/Desktop/walking_exp_matlab/subject03_walking08_straight_02.trc	
DataRate	CameraRate	NumFrames	NumMarkers	Units	OrigDataRate	OrigDataStartFrame	OrigNumFrames	
100.00	100.00	4	51	mm	100.00	1592	314	
Frame#	Time	LFHD			RFHD			LBHD			RBHD			C7			T10			CLAV			STRN			RBAK			LSHO			LUPA			LELB			LFRM			LWRA			LWRB			LFIN			RSHO			RUPA			RELB			RFRM			RWRA			RWRB			RFIN			LASI			RASI			LPSI			RPSI			LTHI			LKNE			LTIB			LANK			LHEE			LTOE			RTHI			RKNE			RTIB			RANK			RHEE			RTOE			*39			*40			*41			*42			*43			*44			*45			*46			*47			*48			*49			*50			
		X1	Y1	Z1	X2	Y2	Z2	X3	Y3	Z3	X4	Y4	Z4	X5	Y5	Z5	X6	Y6	Z6	X7	Y7	Z7	X8	Y8	Z8	X9	Y9	Z9	X10	Y10	Z10	X11	Y11	Z11	X12	Y12	Z12	X13	Y13	Z13	X14	Y14	Z14	X15	Y15	Z15	X16	Y16	Z16	X17	Y17	Z17	X18	Y18	Z18	X19	Y19	Z19	X20	Y20	Z20	X21	Y21	Z21	X22	Y22	Z22	X23	Y23	Z23	X24	Y24	Z24	X25	Y25	Z25	X26	Y26	Z26	X27	Y27	Z27	X28	Y28	Z28	X29	Y29	Z29	X30	Y30	Z30	X31	Y31	Z31	X32	Y32	Z32	X33	Y33	Z33	X34	Y34	Z34	X35	Y35	Z35	X36	Y36	Z36	X37	Y37	Z37	X38	Y38	Z38	X39	Y39	Z39	X40	Y40	Z40	X41	Y41	Z41	X42	Y42	Z42	X43	Y43	Z43	X44	Y44	Z44	X45	Y45	Z45	X46	Y46	Z46	X47	Y47	Z47	X48	Y48	Z48	X49	Y49	Z49	X50	Y50	Z50	X51	Y51	Z51	

40	0.390	1518.30371	886.61676	1625.87476	1385.95557	893.26563	1635.73975	1517.20020	1008.45630	1566.64490	1386.57629	1010.25177	1576.44312	1454.30884	1025.60583	1420.22009	1454.53320	1065.90308	1109.13611	1452.88159	903.24023	1341.95984	1462.94324	864.31073	1175.63672	1358.42834	1079.94092	1246.35071	1608.22607	942.14264	1381.41687	1678.38245	944.52478	1185.01135	1689.88953	933.76257	1061.83704	1689.17188	899.58954	936.27655	1658.09058	870.94849	820.55652	1708.09241	896.28717	822.92651	1696.19031	877.61414	740.10010	1293.54785	946.55505	1363.34216	1222.67566	945.01538	1139.61816	1211.75110	930.64801	1027.29346	1210.91162	917.64484	890.80206	1248.47034	893.97070	794.29260	1201.68530	921.15039	790.24219	1214.95435	904.32983	717.36676	1580.69165	909.51227	936.90973	1342.84045	892.15533	945.54932	1518.80066	1067.51074	961.32904	1370.80127	1055.03369	977.15863	1633.50916	959.83130	634.12988	1619.77148	945.26141	454.31470	1612.71472	1103.07935	335.69470	1568.26526	1258.13171	200.04704	1523.67432	1305.06177	209.06758	1557.25171	1201.64954	60.04601	1301.18677	925.95270	653.54620	1343.76318	892.09521	475.72998	1343.00757	918.27887	287.48834	1396.29224	926.09631	72.68456	1446.77356	969.17908	40.73895	1413.05103	783.33606	38.16621	1473.88513	978.14545	1678.17053																																	 
41	0.400	1518.01465	878.62073	1626.20996	1385.59692	884.89111	1635.93176	1516.58398	1000.36652	1566.81067	1386.18494	1001.90082	1576.55090	1453.34253	1017.48950	1420.68640	1453.20093	1058.30615	1109.60547	1452.71802	895.27356	1342.17114	1462.81592	856.90131	1175.51648	1356.98169	1071.85754	1247.04846	1608.02258	935.28625	1381.21399	1677.90210	938.24652	1184.56250	1689.72095	927.79858	1061.44397	1689.79785	895.06818	935.44647	1659.54907	868.14252	819.15381	1709.51074	893.52435	822.19214	1698.03491	876.17902	738.96588	1293.12622	937.59521	1363.58386	1221.41833	934.29272	1140.06616	1209.91138	918.81091	1027.94836	1208.70020	904.33704	891.60358	1246.12451	879.94354	795.31934	1199.25073	906.66571	791.05048	1212.06006	888.98547	718.78979	1580.20483	902.06610	937.51422	1342.22791	884.31494	946.00293	1517.75427	1060.10168	961.00574	1369.74646	1047.30347	977.48956	1633.45215	947.81763	635.28876	1619.83459	928.71075	455.72687	1612.31860	1086.13696	337.29126	1568.06323	1241.07715	201.44490	1523.14624	1288.38599	209.42751	1558.95789	1182.79944	62.30201	1301.19507	919.78198	653.66473	1343.47717	887.74860	475.63446	1342.89038	915.98376	287.44177	1396.43018	926.11621	72.87186	1446.80542	969.15686	40.73179	1413.15161	783.30713	38.10958	1473.24207	970.09515	1678.38147																																	 
42	0.410	1517.69629	870.59564	1626.51514	1385.28931	876.62604	1636.09094	1516.09363	992.33325	1567.07251	1385.45508	993.43011	1576.54480	1452.59863	1009.49017	1421.14954	1451.94202	1050.85437	1110.07751	1452.61792	887.46069	1342.35095	1462.67566	849.54749	1175.68640	1355.63171	1063.94141	1247.85840	1607.84473	928.54504	1381.04736	1677.55396	932.24408	1184.29126	1689.60388	921.86700	1061.22083	1690.31750	890.65924	934.76306	1660.82703	865.32788	817.91071	1710.77917	890.66650	821.59265	1699.94263	874.40826	738.14893	1292.46167	928.20789	1363.68909	1220.33069	923.58374	1140.64697	1208.30017	906.86743	1028.76501	1206.65918	890.89032	892.56256	1243.95642	865.67322	796.52979	1196.85193	892.12067	792.08496	1209.49219	873.04132	720.08679	1579.56372	895.50677	938.10736	1341.49756	876.59845	946.44775	1516.82385	1052.66895	960.95416	1368.76001	1039.67651	977.74817	1632.97192	935.23083	636.20551	1619.80090	912.55450	457.30917	1611.90198	1069.01440	338.31561	1567.55994	1223.14990	201.49324	1522.83240	1271.35400	208.61015	1560.01868	1162.60730	64.26962	1301.16638	912.95239	653.70001	1343.26379	883.28552	475.45288	1342.80103	913.66180	287.41483	1396.57581	926.07538	72.93533	1446.75049	969.16095	40.99570	1413.22559	783.25342	38.06178	1472.50134	961.89362	1678.42090																																	 
43	0.420	1517.45911	862.56488	1626.79834	1385.03967	868.25073	1636.11511	1515.62830	984.31421	1567.34802	1384.95300	985.09113	1576.59741	1451.88953	1001.62964	1421.60425	1450.79871	1043.42493	1110.52417	1452.53601	879.76373	1342.55420	1462.51587	842.34326	1175.95227	1354.26416	1055.98364	1248.45325	1607.72253	921.96576	1381.10815	1677.30823	926.54474	1184.15613	1689.56873	916.26923	1061.10657	1690.89746	886.33447	934.39233	1662.10889	862.23444	817.03278	1712.14636	887.50842	821.40308	1701.84106	872.13995	737.66046	1292.29724	919.68433	1364.19751	1219.40491	912.85968	1141.33899	1206.91748	894.81763	1029.77478	1204.74585	877.58344	893.79840	1241.67920	850.90448	798.02216	1194.56738	877.45093	793.35773	1206.86035	857.15717	721.74182	1578.71167	888.39813	938.93970	1340.65417	868.97394	946.80524	1515.98572	1045.19617	961.05994	1367.95374	1032.11865	977.87378	1632.42676	922.70282	637.12842	1619.50623	896.52435	458.71701	1611.48975	1051.75854	338.78076	1567.55603	1205.26270	201.10631	1522.78625	1253.92908	206.65768	1560.14612	1140.92358	65.46257	1301.16016	906.47400	653.65753	1343.17566	878.88037	475.15268	1342.70264	911.09210	287.32840	1396.65991	925.98553	73.03632	1446.88232	969.13385	41.05224	1413.32910	783.15588	37.99939	1471.95850	953.75787	1678.55847																																	 
